<svg width="198" height="39" viewBox="0 0 198 39" fill="none" xmlns="http://www.w3.org/2000/svg">
<path d="M31 14.5C22 5.49998 13.5 16.6031 3.1875 16.6032C15 20 15.5 9.49998 31 14.5Z" fill="#347FFF" stroke="#347FFF" stroke-linecap="round" stroke-linejoin="round"/>
<path d="M30.8125 20.5191C21.8125 11.5191 13.3125 22.6223 3 22.6223C14.8125 26.0192 15.3125 15.5191 30.8125 20.5191Z" fill="#347FFF" stroke="#347FFF" stroke-linecap="round" stroke-linejoin="round"/>
<path d="M30.8125 26.5191C21.8125 17.5191 13.3125 28.6223 3 28.6223C14.8125 32.0192 15.3125 21.5191 30.8125 26.5191Z" fill="#347FFF" stroke="#347FFF" stroke-linecap="round" stroke-linejoin="round"/>
<path d="M55.32 32.512C54.6373 32.512 54.024 32.416 53.48 32.224C52.936 32.032 52.4507 31.76 52.024 31.408C51.5973 31.056 51.2133 30.6453 50.872 30.176H50.456L49.624 32H44.12C44.12 30.8907 44.12 29.8133 44.12 28.768C44.12 27.7227 44.12 26.528 44.12 25.184V16.224C44.12 14.9547 44.12 13.6853 44.12 12.416C44.12 11.136 44.12 9.83467 44.12 8.512L51.224 8C51.224 9.22666 51.224 10.5227 51.224 11.888C51.224 13.2427 51.224 14.688 51.224 16.224V17.408H51.736C52.0027 16.9387 52.3067 16.56 52.648 16.272C53 15.9733 53.3947 15.76 53.832 15.632C54.2693 15.4933 54.7547 15.424 55.288 15.424C56.6533 15.424 57.784 15.808 58.68 16.576C59.576 17.3333 60.2427 18.3573 60.68 19.648C61.1173 20.9387 61.336 22.3787 61.336 23.968C61.336 25.4507 61.1227 26.8427 60.696 28.144C60.28 29.4453 59.6293 30.5013 58.744 31.312C57.8587 32.112 56.7173 32.512 55.32 32.512ZM52.408 26.592C52.76 26.592 53.0587 26.4693 53.304 26.224C53.56 25.968 53.752 25.648 53.88 25.264C54.008 24.8693 54.072 24.4587 54.072 24.032C54.072 23.5733 54.008 23.1467 53.88 22.752C53.752 22.3573 53.5653 22.0427 53.32 21.808C53.0747 21.5627 52.7707 21.44 52.408 21.44C52.248 21.44 52.0933 21.4667 51.944 21.52C51.7947 21.5733 51.656 21.6427 51.528 21.728C51.4107 21.8133 51.3093 21.9093 51.224 22.016V25.696C51.2773 25.856 51.3573 26.0053 51.464 26.144C51.5707 26.272 51.704 26.3787 51.864 26.464C52.024 26.5493 52.2053 26.592 52.408 26.592ZM62.4488 32C62.4488 30.8907 62.4488 29.8133 62.4488 28.768C62.4488 27.7227 62.4488 26.528 62.4488 25.184V23.584C62.4488 22.3147 62.4488 21.056 62.4488 19.808C62.4488 18.5493 62.4488 17.2587 62.4488 15.936L68.3368 15.616L68.6568 18.208H69.2008C69.5954 17.4613 70.0061 16.8907 70.4328 16.496C70.8701 16.0907 71.3128 15.8133 71.7608 15.664C72.2194 15.504 72.6781 15.424 73.1368 15.424C73.3181 15.424 73.5634 15.4453 73.8728 15.488C74.1821 15.5307 74.4701 15.616 74.7368 15.744L74.1288 22.56C73.6488 22.56 73.2168 22.56 72.8328 22.56C72.4594 22.56 72.0808 22.56 71.6968 22.56C71.4088 22.56 71.1474 22.5813 70.9128 22.624C70.6888 22.6667 70.4914 22.7307 70.3208 22.816C70.1501 22.9013 70.0008 22.9973 69.8728 23.104C69.7448 23.2107 69.6381 23.328 69.5528 23.456V25.6C69.5528 26.7307 69.5528 27.8027 69.5528 28.816C69.5528 29.8293 69.5528 30.8907 69.5528 32H62.4488ZM84.0485 32.512C81.8085 32.512 79.9952 32.1493 78.6085 31.424C77.2218 30.6987 76.2085 29.696 75.5685 28.416C74.9285 27.1253 74.6085 25.6427 74.6085 23.968C74.6085 22.2933 74.8965 20.816 75.4725 19.536C76.0485 18.2453 76.9338 17.2373 78.1285 16.512C79.3338 15.7867 80.8805 15.424 82.7685 15.424C84.3472 15.424 85.6912 15.68 86.8005 16.192C87.9098 16.704 88.7578 17.504 89.3445 18.592C89.9312 19.6693 90.2245 21.0667 90.2245 22.784C90.2245 23.2427 90.2085 23.648 90.1765 24C90.1552 24.3413 90.1178 24.6827 90.0645 25.024L84.0805 23.072C84.1018 22.944 84.1178 22.8107 84.1285 22.672C84.1392 22.5333 84.1445 22.4107 84.1445 22.304C84.1445 21.5787 84.0218 21.0027 83.7765 20.576C83.5312 20.1493 83.2165 19.936 82.8325 19.936C82.5658 19.936 82.3098 20.032 82.0645 20.224C81.8298 20.416 81.6378 20.7253 81.4885 21.152C81.3392 21.568 81.2645 22.1227 81.2645 22.816V24.064C81.2645 24.672 81.3872 25.1787 81.6325 25.584C81.8885 25.9787 82.2885 26.2773 82.8325 26.48C83.3765 26.6827 84.0912 26.784 84.9765 26.784C85.3178 26.784 85.7658 26.7467 86.3205 26.672C86.8858 26.5867 87.4725 26.4693 88.0805 26.32C88.6992 26.16 89.2645 25.9627 89.7765 25.728L90.0005 31.552C89.5738 31.712 89.0725 31.8667 88.4965 32.016C87.9205 32.1653 87.2592 32.2827 86.5125 32.368C85.7765 32.464 84.9552 32.512 84.0485 32.512ZM77.2645 25.024V22.4L86.0005 22.08L90.0645 22.464V25.024H77.2645ZM100.252 32.512C98.0123 32.512 96.1989 32.1493 94.8123 31.424C93.4256 30.6987 92.4123 29.696 91.7723 28.416C91.1323 27.1253 90.8123 25.6427 90.8123 23.968C90.8123 22.2933 91.1003 20.816 91.6763 19.536C92.2523 18.2453 93.1376 17.2373 94.3323 16.512C95.5376 15.7867 97.0843 15.424 98.9723 15.424C100.551 15.424 101.895 15.68 103.004 16.192C104.114 16.704 104.962 17.504 105.548 18.592C106.135 19.6693 106.428 21.0667 106.428 22.784C106.428 23.2427 106.412 23.648 106.38 24C106.359 24.3413 106.322 24.6827 106.268 25.024L100.284 23.072C100.306 22.944 100.322 22.8107 100.332 22.672C100.343 22.5333 100.348 22.4107 100.348 22.304C100.348 21.5787 100.226 21.0027 99.9803 20.576C99.7349 20.1493 99.4203 19.936 99.0363 19.936C98.7696 19.936 98.5136 20.032 98.2683 20.224C98.0336 20.416 97.8416 20.7253 97.6923 21.152C97.5429 21.568 97.4683 22.1227 97.4683 22.816V24.064C97.4683 24.672 97.5909 25.1787 97.8363 25.584C98.0923 25.9787 98.4923 26.2773 99.0363 26.48C99.5803 26.6827 100.295 26.784 101.18 26.784C101.522 26.784 101.97 26.7467 102.524 26.672C103.09 26.5867 103.676 26.4693 104.284 26.32C104.903 26.16 105.468 25.9627 105.98 25.728L106.204 31.552C105.778 31.712 105.276 31.8667 104.7 32.016C104.124 32.1653 103.463 32.2827 102.716 32.368C101.98 32.464 101.159 32.512 100.252 32.512ZM93.4683 25.024V22.4L102.204 22.08L106.268 22.464V25.024H93.4683ZM107.208 32V28.8C107.869 27.936 108.52 27.088 109.16 26.256C109.8 25.424 110.424 24.6133 111.032 23.824L114.488 19.328L115.272 21.216H112.648C112.221 21.216 111.709 21.216 111.112 21.216C110.525 21.216 109.907 21.216 109.256 21.216C108.616 21.216 108.008 21.216 107.432 21.216V15.936H122.408V19.776C122.088 20.192 121.725 20.656 121.32 21.168C120.925 21.6693 120.515 22.192 120.088 22.736C119.672 23.28 119.261 23.808 118.856 24.32L115.672 28.384L115.048 26.72H117.864C118.291 26.72 118.792 26.72 119.368 26.72C119.944 26.72 120.531 26.72 121.128 26.72C121.736 26.72 122.301 26.72 122.824 26.72V32H107.208Z" fill="#347FFF"/>
<path d="M135.276 32.512C134.594 32.512 133.98 32.416 133.436 32.224C132.892 32.032 132.407 31.76 131.98 31.408C131.554 31.056 131.17 30.6453 130.828 30.176H130.412L129.58 32H124.076C124.076 30.8907 124.076 29.8133 124.076 28.768C124.076 27.7227 124.076 26.528 124.076 25.184V16.224C124.076 14.9547 124.076 13.6853 124.076 12.416C124.076 11.136 124.076 9.83467 124.076 8.512L131.18 8C131.18 9.22666 131.18 10.5227 131.18 11.888C131.18 13.2427 131.18 14.688 131.18 16.224V17.408H131.692C131.959 16.9387 132.263 16.56 132.604 16.272C132.956 15.9733 133.351 15.76 133.788 15.632C134.226 15.4933 134.711 15.424 135.244 15.424C136.61 15.424 137.74 15.808 138.636 16.576C139.532 17.3333 140.199 18.3573 140.636 19.648C141.074 20.9387 141.292 22.3787 141.292 23.968C141.292 25.4507 141.079 26.8427 140.652 28.144C140.236 29.4453 139.586 30.5013 138.7 31.312C137.815 32.112 136.674 32.512 135.276 32.512ZM132.364 26.592C132.716 26.592 133.015 26.4693 133.26 26.224C133.516 25.968 133.708 25.648 133.836 25.264C133.964 24.8693 134.028 24.4587 134.028 24.032C134.028 23.5733 133.964 23.1467 133.836 22.752C133.708 22.3573 133.522 22.0427 133.276 21.808C133.031 21.5627 132.727 21.44 132.364 21.44C132.204 21.44 132.05 21.4667 131.9 21.52C131.751 21.5733 131.612 21.6427 131.484 21.728C131.367 21.8133 131.266 21.9093 131.18 22.016V25.696C131.234 25.856 131.314 26.0053 131.42 26.144C131.527 26.272 131.66 26.3787 131.82 26.464C131.98 26.5493 132.162 26.592 132.364 26.592ZM150.949 32.512C149.338 32.512 147.957 32.2827 146.805 31.824C145.653 31.3547 144.709 30.72 143.973 29.92C143.248 29.12 142.714 28.208 142.373 27.184C142.032 26.16 141.861 25.088 141.861 23.968C141.861 22.368 142.181 20.9227 142.821 19.632C143.461 18.3413 144.437 17.3173 145.749 16.56C147.072 15.8027 148.752 15.424 150.789 15.424C152.357 15.424 153.712 15.6427 154.853 16.08C155.994 16.5173 156.933 17.1253 157.669 17.904C158.405 18.6827 158.949 19.5893 159.301 20.624C159.664 21.6587 159.845 22.7733 159.845 23.968C159.845 25.6107 159.509 27.0773 158.837 28.368C158.176 29.648 157.184 30.6613 155.861 31.408C154.538 32.144 152.901 32.512 150.949 32.512ZM150.917 26.848C151.301 26.848 151.616 26.7147 151.861 26.448C152.117 26.1813 152.304 25.8293 152.421 25.392C152.549 24.9547 152.613 24.48 152.613 23.968C152.613 23.3173 152.533 22.7787 152.373 22.352C152.224 21.9253 152.016 21.6107 151.749 21.408C151.493 21.1947 151.205 21.088 150.885 21.088C150.501 21.088 150.176 21.216 149.909 21.472C149.642 21.7173 149.44 22.0587 149.301 22.496C149.162 22.9227 149.093 23.4133 149.093 23.968C149.093 24.48 149.162 24.9547 149.301 25.392C149.45 25.8293 149.658 26.1813 149.925 26.448C150.202 26.7147 150.533 26.848 150.917 26.848ZM169.434 32.512C167.823 32.512 166.442 32.2827 165.29 31.824C164.138 31.3547 163.194 30.72 162.458 29.92C161.733 29.12 161.199 28.208 160.858 27.184C160.517 26.16 160.346 25.088 160.346 23.968C160.346 22.368 160.666 20.9227 161.306 19.632C161.946 18.3413 162.922 17.3173 164.234 16.56C165.557 15.8027 167.237 15.424 169.274 15.424C170.842 15.424 172.197 15.6427 173.338 16.08C174.479 16.5173 175.418 17.1253 176.154 17.904C176.89 18.6827 177.434 19.5893 177.786 20.624C178.149 21.6587 178.33 22.7733 178.33 23.968C178.33 25.6107 177.994 27.0773 177.322 28.368C176.661 29.648 175.669 30.6613 174.346 31.408C173.023 32.144 171.386 32.512 169.434 32.512ZM169.402 26.848C169.786 26.848 170.101 26.7147 170.346 26.448C170.602 26.1813 170.789 25.8293 170.906 25.392C171.034 24.9547 171.098 24.48 171.098 23.968C171.098 23.3173 171.018 22.7787 170.858 22.352C170.709 21.9253 170.501 21.6107 170.234 21.408C169.978 21.1947 169.69 21.088 169.37 21.088C168.986 21.088 168.661 21.216 168.394 21.472C168.127 21.7173 167.925 22.0587 167.786 22.496C167.647 22.9227 167.578 23.4133 167.578 23.968C167.578 24.48 167.647 24.9547 167.786 25.392C167.935 25.8293 168.143 26.1813 168.41 26.448C168.687 26.7147 169.018 26.848 169.402 26.848ZM189.263 32C189.06 31.4133 188.852 30.832 188.639 30.256C188.436 29.68 188.234 29.1147 188.031 28.56L187.247 26.368H185.967V21.824H187.247L188.047 19.728C188.292 19.0987 188.532 18.4693 188.767 17.84C189.012 17.2 189.252 16.5653 189.487 15.936H197.551C196.943 16.9387 196.34 17.9307 195.743 18.912C195.146 19.8827 194.548 20.864 193.951 21.856L192.175 24.768L191.823 21.728L194.239 25.92C194.826 26.9333 195.412 27.952 195.999 28.976C196.586 29.9893 197.167 30.9973 197.743 32H189.263ZM179.375 32C179.375 30.8907 179.375 29.8133 179.375 28.768C179.375 27.7227 179.375 26.528 179.375 25.184V16.224C179.375 14.9547 179.375 13.6853 179.375 12.416C179.375 11.136 179.375 9.83467 179.375 8.512L186.479 8C186.479 9.22666 186.479 10.5227 186.479 11.888C186.479 13.2427 186.479 14.688 186.479 16.224V26.688C186.479 27.6267 186.479 28.5173 186.479 29.36C186.479 30.2027 186.479 31.0827 186.479 32H179.375Z" fill="#5FD08E"/>
</svg>
