<svg width="221" height="45" viewBox="0 0 221 45" fill="none" xmlns="http://www.w3.org/2000/svg">
<path d="M53.7941 13.708C38.1765 -1.71352 23.4265 17.3118 5.53125 17.3118C26.0294 23.1323 26.8971 5.14048 53.7941 13.708Z" fill="#349EFF" stroke="#349EFF" stroke-width="1.20408" stroke-linecap="round" stroke-linejoin="round"/>
<path d="M53.4687 24.0218C37.851 8.60032 23.101 27.6256 5.20581 27.6256C25.704 33.4461 26.5716 15.4543 53.4687 24.0218Z" fill="#ACD8FF" stroke="#ACD8FF" stroke-width="1.20408" stroke-linecap="round" stroke-linejoin="round"/>
<path d="M53.4687 34.3028C37.851 18.8813 23.101 37.9066 5.20581 37.9066C25.704 43.7271 26.5716 25.7353 53.4687 34.3028Z" fill="#349EFF" stroke="#349EFF" stroke-width="1.20408" stroke-linecap="round" stroke-linejoin="round"/>
<path d="M79.392 35.2075C78.6773 35.2075 78.0267 35.1062 77.44 34.9035C76.864 34.7115 76.336 34.4395 75.856 34.0875C75.3867 33.7248 74.9653 33.2928 74.592 32.7915H74.256L73.744 34.7755H69.968C69.968 33.6342 69.968 32.5302 69.968 31.4635C69.968 30.3862 69.968 29.1862 69.968 27.8635V18.9835C69.968 17.6822 69.968 16.3968 69.968 15.1275C69.968 13.8475 69.968 12.5782 69.968 11.3195L74.752 10.9035C74.752 12.1622 74.752 13.4582 74.752 14.7915C74.752 16.1142 74.752 17.5115 74.752 18.9835V20.4395H75.136C75.4133 20.0128 75.76 19.6448 76.176 19.3355C76.592 19.0262 77.0613 18.7915 77.584 18.6315C78.1173 18.4608 78.704 18.3755 79.344 18.3755C80.752 18.3755 81.936 18.7435 82.896 19.4795C83.856 20.2155 84.5813 21.2182 85.072 22.4875C85.5627 23.7568 85.808 25.1862 85.808 26.7755C85.808 28.2582 85.5733 29.6395 85.104 30.9195C84.6453 32.1995 83.9413 33.2342 82.992 34.0235C82.0427 34.8128 80.8427 35.2075 79.392 35.2075ZM77.584 31.1435C78.3413 31.1435 78.9653 30.9355 79.456 30.5195C79.9573 30.1035 80.3253 29.5702 80.56 28.9195C80.7947 28.2582 80.912 27.5542 80.912 26.8075C80.912 26.0288 80.7893 25.3142 80.544 24.6635C80.2987 24.0022 79.9253 23.4742 79.424 23.0795C78.9333 22.6848 78.3093 22.4875 77.552 22.4875C77.1787 22.4875 76.816 22.5462 76.464 22.6635C76.1227 22.7702 75.8027 22.9302 75.504 23.1435C75.216 23.3568 74.9653 23.6128 74.752 23.9115V29.3515C74.944 29.7142 75.1733 30.0288 75.44 30.2955C75.7067 30.5622 76.016 30.7702 76.368 30.9195C76.7307 31.0688 77.136 31.1435 77.584 31.1435ZM88.2655 34.7755C88.2655 33.6342 88.2655 32.5302 88.2655 31.4635C88.2655 30.3862 88.2655 29.1862 88.2655 27.8635V26.2635C88.2655 25.0368 88.2655 23.8048 88.2655 22.5675C88.2655 21.3302 88.2655 20.0768 88.2655 18.8075L92.2815 18.5675L92.4895 21.5115H92.8895C93.3055 20.6475 93.7642 19.9915 94.2655 19.5435C94.7668 19.0848 95.2788 18.7755 95.8015 18.6155C96.3242 18.4555 96.8255 18.3755 97.3055 18.3755C97.5508 18.3755 97.8228 18.3968 98.1215 18.4395C98.4308 18.4822 98.7188 18.5568 98.9855 18.6635L98.5695 23.3035C98.1535 23.2715 97.7802 23.2448 97.4495 23.2235C97.1188 23.2022 96.7668 23.1915 96.3935 23.1915C96.0948 23.1915 95.7855 23.2235 95.4655 23.2875C95.1562 23.3515 94.8522 23.4795 94.5535 23.6715C94.2548 23.8635 93.9775 24.1302 93.7215 24.4715C93.4655 24.8128 93.2415 25.2555 93.0495 25.7995V28.1195C93.0495 29.3142 93.0495 30.4395 93.0495 31.4955C93.0495 32.5408 93.0495 33.6342 93.0495 34.7755H88.2655ZM108.375 35.1915C106.317 35.1915 104.631 34.8288 103.319 34.1035C102.018 33.3782 101.058 32.3808 100.439 31.1115C99.8315 29.8422 99.5275 28.3862 99.5275 26.7435C99.5275 25.1008 99.8155 23.6502 100.391 22.3915C100.967 21.1328 101.826 20.1515 102.967 19.4475C104.119 18.7328 105.549 18.3755 107.255 18.3755C108.706 18.3755 109.949 18.6368 110.983 19.1595C112.018 19.6715 112.813 20.4502 113.368 21.4955C113.922 22.5408 114.2 23.8582 114.2 25.4475C114.2 25.8742 114.189 26.2528 114.168 26.5835C114.146 26.9142 114.109 27.2448 114.056 27.5755L109.96 26.0235C109.981 25.8848 109.997 25.7408 110.007 25.5915C110.018 25.4422 110.023 25.3035 110.023 25.1755C110.023 24.0982 109.767 23.2555 109.255 22.6475C108.754 22.0288 108.104 21.7195 107.304 21.7195C106.695 21.7195 106.157 21.9008 105.687 22.2635C105.218 22.6155 104.85 23.1115 104.583 23.7515C104.317 24.3915 104.183 25.1542 104.183 26.0395V26.8235C104.183 27.7515 104.349 28.5462 104.679 29.2075C105.021 29.8688 105.543 30.3755 106.247 30.7275C106.951 31.0795 107.853 31.2555 108.951 31.2555C109.378 31.2555 109.869 31.2182 110.424 31.1435C110.989 31.0582 111.559 30.9355 112.135 30.7755C112.722 30.6048 113.266 30.3915 113.767 30.1355L113.927 34.1675C113.512 34.3595 113.026 34.5355 112.472 34.6955C111.928 34.8448 111.309 34.9622 110.615 35.0475C109.922 35.1435 109.175 35.1915 108.375 35.1915ZM101.367 27.5755V25.0155L111.271 24.8075L114.056 25.5915V27.5755H101.367ZM124.579 35.1915C122.521 35.1915 120.835 34.8288 119.523 34.1035C118.222 33.3782 117.262 32.3808 116.643 31.1115C116.035 29.8422 115.731 28.3862 115.731 26.7435C115.731 25.1008 116.019 23.6502 116.595 22.3915C117.171 21.1328 118.03 20.1515 119.171 19.4475C120.323 18.7328 121.753 18.3755 123.459 18.3755C124.91 18.3755 126.153 18.6368 127.187 19.1595C128.222 19.6715 129.017 20.4502 129.571 21.4955C130.126 22.5408 130.403 23.8582 130.403 25.4475C130.403 25.8742 130.393 26.2528 130.371 26.5835C130.35 26.9142 130.313 27.2448 130.259 27.5755L126.163 26.0235C126.185 25.8848 126.201 25.7408 126.211 25.5915C126.222 25.4422 126.227 25.3035 126.227 25.1755C126.227 24.0982 125.971 23.2555 125.459 22.6475C124.958 22.0288 124.307 21.7195 123.507 21.7195C122.899 21.7195 122.361 21.9008 121.891 22.2635C121.422 22.6155 121.054 23.1115 120.787 23.7515C120.521 24.3915 120.387 25.1542 120.387 26.0395V26.8235C120.387 27.7515 120.553 28.5462 120.883 29.2075C121.225 29.8688 121.747 30.3755 122.451 30.7275C123.155 31.0795 124.057 31.2555 125.155 31.2555C125.582 31.2555 126.073 31.2182 126.627 31.1435C127.193 31.0582 127.763 30.9355 128.339 30.7755C128.926 30.6048 129.47 30.3915 129.971 30.1355L130.131 34.1675C129.715 34.3595 129.23 34.5355 128.675 34.6955C128.131 34.8448 127.513 34.9622 126.819 35.0475C126.126 35.1435 125.379 35.1915 124.579 35.1915ZM117.571 27.5755V25.0155L127.475 24.8075L130.259 25.5915V27.5755H117.571ZM131.823 34.7755V32.5355C132.612 31.5008 133.386 30.4928 134.143 29.5115C134.9 28.5195 135.626 27.5702 136.319 26.6635L140.623 21.0315L141.199 22.4395H138.127C137.615 22.4395 137.007 22.4395 136.303 22.4395C135.61 22.4395 134.884 22.4395 134.127 22.4395C133.37 22.4395 132.65 22.4395 131.967 22.4395V18.8075H145.887V21.4795C145.514 21.9595 145.087 22.5088 144.607 23.1275C144.138 23.7355 143.647 24.3702 143.135 25.0315C142.634 25.6822 142.148 26.3115 141.679 26.9195L137.519 32.2955L137.071 31.1435H140.431C140.943 31.1435 141.54 31.1435 142.223 31.1435C142.906 31.1435 143.61 31.1435 144.335 31.1435C145.06 31.1435 145.732 31.1435 146.351 31.1435V34.7755H131.823Z" fill="#349EFF"/>
<path d="M158.067 35.2075C157.352 35.2075 156.702 35.1062 156.115 34.9035C155.539 34.7115 155.011 34.4395 154.531 34.0875C154.062 33.7248 153.64 33.2928 153.267 32.7915H152.931L152.419 34.7755H148.643C148.643 33.6342 148.643 32.5302 148.643 31.4635C148.643 30.3862 148.643 29.1862 148.643 27.8635V18.9835C148.643 17.6822 148.643 16.3968 148.643 15.1275C148.643 13.8475 148.643 12.5782 148.643 11.3195L153.427 10.9035C153.427 12.1622 153.427 13.4582 153.427 14.7915C153.427 16.1142 153.427 17.5115 153.427 18.9835V20.4395H153.811C154.088 20.0128 154.435 19.6448 154.851 19.3355C155.267 19.0262 155.736 18.7915 156.259 18.6315C156.792 18.4608 157.379 18.3755 158.019 18.3755C159.427 18.3755 160.611 18.7435 161.571 19.4795C162.531 20.2155 163.256 21.2182 163.747 22.4875C164.238 23.7568 164.483 25.1862 164.483 26.7755C164.483 28.2582 164.248 29.6395 163.779 30.9195C163.32 32.1995 162.616 33.2342 161.667 34.0235C160.718 34.8128 159.518 35.2075 158.067 35.2075ZM156.259 31.1435C157.016 31.1435 157.64 30.9355 158.131 30.5195C158.632 30.1035 159 29.5702 159.235 28.9195C159.47 28.2582 159.587 27.5542 159.587 26.8075C159.587 26.0288 159.464 25.3142 159.219 24.6635C158.974 24.0022 158.6 23.4742 158.099 23.0795C157.608 22.6848 156.984 22.4875 156.227 22.4875C155.854 22.4875 155.491 22.5462 155.139 22.6635C154.798 22.7702 154.478 22.9302 154.179 23.1435C153.891 23.3568 153.64 23.6128 153.427 23.9115V29.3515C153.619 29.7142 153.848 30.0288 154.115 30.2955C154.382 30.5622 154.691 30.7702 155.043 30.9195C155.406 31.0688 155.811 31.1435 156.259 31.1435ZM174.605 35.2075C173.154 35.2075 171.89 34.9782 170.813 34.5195C169.746 34.0608 168.861 33.4368 168.157 32.6475C167.463 31.8582 166.941 30.9568 166.589 29.9435C166.247 28.9195 166.077 27.8528 166.077 26.7435C166.077 25.1542 166.397 23.7302 167.037 22.4715C167.687 21.2022 168.637 20.2048 169.885 19.4795C171.143 18.7435 172.685 18.3755 174.509 18.3755C175.917 18.3755 177.149 18.5888 178.205 19.0155C179.271 19.4315 180.157 20.0235 180.861 20.7915C181.575 21.5488 182.109 22.4395 182.461 23.4635C182.813 24.4768 182.989 25.5702 182.989 26.7435C182.989 28.3542 182.663 29.7995 182.013 31.0795C181.362 32.3488 180.413 33.3568 179.165 34.1035C177.917 34.8395 176.397 35.2075 174.605 35.2075ZM174.589 31.3035C175.389 31.3035 176.045 31.0902 176.557 30.6635C177.079 30.2262 177.469 29.6608 177.725 28.9675C177.991 28.2742 178.125 27.5328 178.125 26.7435C178.125 25.8048 177.975 25.0048 177.677 24.3435C177.378 23.6715 176.962 23.1595 176.429 22.8075C175.895 22.4555 175.277 22.2795 174.573 22.2795C173.783 22.2795 173.117 22.4768 172.573 22.8715C172.039 23.2662 171.634 23.7995 171.357 24.4715C171.09 25.1435 170.957 25.9008 170.957 26.7435C170.957 27.5328 171.09 28.2742 171.357 28.9675C171.634 29.6608 172.039 30.2262 172.573 30.6635C173.117 31.0902 173.789 31.3035 174.589 31.3035ZM193.089 35.2075C191.639 35.2075 190.375 34.9782 189.297 34.5195C188.231 34.0608 187.345 33.4368 186.641 32.6475C185.948 31.8582 185.425 30.9568 185.073 29.9435C184.732 28.9195 184.561 27.8528 184.561 26.7435C184.561 25.1542 184.881 23.7302 185.521 22.4715C186.172 21.2022 187.121 20.2048 188.369 19.4795C189.628 18.7435 191.169 18.3755 192.993 18.3755C194.401 18.3755 195.633 18.5888 196.689 19.0155C197.756 19.4315 198.641 20.0235 199.345 20.7915C200.06 21.5488 200.593 22.4395 200.945 23.4635C201.297 24.4768 201.473 25.5702 201.473 26.7435C201.473 28.3542 201.148 29.7995 200.497 31.0795C199.847 32.3488 198.897 33.3568 197.649 34.1035C196.401 34.8395 194.881 35.2075 193.089 35.2075ZM193.073 31.3035C193.873 31.3035 194.529 31.0902 195.041 30.6635C195.564 30.2262 195.953 29.6608 196.209 28.9675C196.476 28.2742 196.609 27.5328 196.609 26.7435C196.609 25.8048 196.46 25.0048 196.161 24.3435C195.863 23.6715 195.447 23.1595 194.913 22.8075C194.38 22.4555 193.761 22.2795 193.057 22.2795C192.268 22.2795 191.601 22.4768 191.057 22.8715C190.524 23.2662 190.119 23.7995 189.841 24.4715C189.575 25.1435 189.441 25.9008 189.441 26.7435C189.441 27.5328 189.575 28.2742 189.841 28.9675C190.119 29.6608 190.524 30.2262 191.057 30.6635C191.601 31.0902 192.273 31.3035 193.073 31.3035ZM214.135 34.7755C213.665 34.1142 213.191 33.4582 212.711 32.8075C212.231 32.1568 211.756 31.5115 211.287 30.8715L209.479 28.3915H208.279V25.2235H209.559L211.143 22.9515C211.633 22.2688 212.119 21.5808 212.599 20.8875C213.089 20.1835 213.575 19.4902 214.055 18.8075H219.607C218.839 19.7782 218.076 20.7382 217.319 21.6875C216.561 22.6368 215.804 23.5915 215.047 24.5515L212.791 27.3675L212.583 25.2555L215.367 28.9515C216.145 29.9222 216.919 30.8982 217.687 31.8795C218.455 32.8502 219.223 33.8155 219.991 34.7755H214.135ZM203.911 34.7755C203.911 33.6342 203.911 32.5302 203.911 31.4635C203.911 30.3862 203.911 29.1862 203.911 27.8635V18.9835C203.911 17.6822 203.911 16.3968 203.911 15.1275C203.911 13.8582 203.911 12.5888 203.911 11.3195L208.695 10.9035C208.695 12.1622 208.695 13.4582 208.695 14.7915C208.695 16.1142 208.695 17.5115 208.695 18.9835V28.7915C208.695 29.8688 208.695 30.8822 208.695 31.8315C208.695 32.7702 208.695 33.7515 208.695 34.7755H203.911Z" fill="#00284B"/>
</svg>
