<svg width="221" height="46" viewBox="0 0 221 46" fill="none" xmlns="http://www.w3.org/2000/svg">
<path d="M53.7941 14.259C38.1765 -1.1625 23.4265 17.8628 5.53125 17.8628C26.0294 23.6833 26.8971 5.6915 53.7941 14.259Z" fill="#04A7E2" stroke="#04A7E2" stroke-width="1.20408" stroke-linecap="round" stroke-linejoin="round"/>
<path d="M53.4687 24.5728C37.851 9.15134 23.101 28.1766 5.20581 28.1767C25.704 33.9971 26.5716 16.0053 53.4687 24.5728Z" fill="#96D9F2" stroke="#96D9F2" stroke-width="1.20408" stroke-linecap="round" stroke-linejoin="round"/>
<path d="M53.4687 34.8538C37.851 19.4324 23.101 38.4576 5.20581 38.4577C25.704 44.2781 26.5716 26.2864 53.4687 34.8538Z" fill="#04A7E2" stroke="#04A7E2" stroke-width="1.20408" stroke-linecap="round" stroke-linejoin="round"/>
<path d="M79.392 35.7585C78.6773 35.7585 78.0267 35.6572 77.44 35.4545C76.864 35.2625 76.336 34.9905 75.856 34.6385C75.3867 34.2759 74.9653 33.8439 74.592 33.3425H74.256L73.744 35.3265H69.968C69.968 34.1852 69.968 33.0812 69.968 32.0145C69.968 30.9372 69.968 29.7372 69.968 28.4145V19.5345C69.968 18.2332 69.968 16.9479 69.968 15.6785C69.968 14.3985 69.968 13.1292 69.968 11.8705L74.752 11.4545C74.752 12.7132 74.752 14.0092 74.752 15.3425C74.752 16.6652 74.752 18.0625 74.752 19.5345V20.9905H75.136C75.4133 20.5639 75.76 20.1959 76.176 19.8865C76.592 19.5772 77.0613 19.3425 77.584 19.1825C78.1173 19.0119 78.704 18.9265 79.344 18.9265C80.752 18.9265 81.936 19.2945 82.896 20.0305C83.856 20.7665 84.5813 21.7692 85.072 23.0385C85.5627 24.3079 85.808 25.7372 85.808 27.3265C85.808 28.8092 85.5733 30.1905 85.104 31.4705C84.6453 32.7505 83.9413 33.7852 82.992 34.5745C82.0427 35.3639 80.8427 35.7585 79.392 35.7585ZM77.584 31.6945C78.3413 31.6945 78.9653 31.4865 79.456 31.0705C79.9573 30.6545 80.3253 30.1212 80.56 29.4705C80.7947 28.8092 80.912 28.1052 80.912 27.3585C80.912 26.5799 80.7893 25.8652 80.544 25.2145C80.2987 24.5532 79.9253 24.0252 79.424 23.6305C78.9333 23.2359 78.3093 23.0385 77.552 23.0385C77.1787 23.0385 76.816 23.0972 76.464 23.2145C76.1227 23.3212 75.8027 23.4812 75.504 23.6945C75.216 23.9079 74.9653 24.1639 74.752 24.4625V29.9025C74.944 30.2652 75.1733 30.5799 75.44 30.8465C75.7067 31.1132 76.016 31.3212 76.368 31.4705C76.7307 31.6199 77.136 31.6945 77.584 31.6945ZM88.2655 35.3265C88.2655 34.1852 88.2655 33.0812 88.2655 32.0145C88.2655 30.9372 88.2655 29.7372 88.2655 28.4145V26.8145C88.2655 25.5879 88.2655 24.3559 88.2655 23.1185C88.2655 21.8812 88.2655 20.6279 88.2655 19.3585L92.2815 19.1185L92.4895 22.0625H92.8895C93.3055 21.1985 93.7642 20.5425 94.2655 20.0945C94.7668 19.6359 95.2788 19.3265 95.8015 19.1665C96.3242 19.0065 96.8255 18.9265 97.3055 18.9265C97.5508 18.9265 97.8228 18.9479 98.1215 18.9905C98.4308 19.0332 98.7188 19.1079 98.9855 19.2145L98.5695 23.8545C98.1535 23.8225 97.7802 23.7959 97.4495 23.7745C97.1188 23.7532 96.7668 23.7425 96.3935 23.7425C96.0948 23.7425 95.7855 23.7745 95.4655 23.8385C95.1562 23.9025 94.8522 24.0305 94.5535 24.2225C94.2548 24.4145 93.9775 24.6812 93.7215 25.0225C93.4655 25.3639 93.2415 25.8065 93.0495 26.3505V28.6705C93.0495 29.8652 93.0495 30.9905 93.0495 32.0465C93.0495 33.0919 93.0495 34.1852 93.0495 35.3265H88.2655ZM108.375 35.7425C106.317 35.7425 104.631 35.3799 103.319 34.6545C102.018 33.9292 101.058 32.9319 100.439 31.6625C99.8315 30.3932 99.5275 28.9372 99.5275 27.2945C99.5275 25.6519 99.8155 24.2012 100.391 22.9425C100.967 21.6839 101.826 20.7025 102.967 19.9985C104.119 19.2839 105.549 18.9265 107.255 18.9265C108.706 18.9265 109.949 19.1879 110.983 19.7105C112.018 20.2225 112.813 21.0012 113.368 22.0465C113.922 23.0919 114.2 24.4092 114.2 25.9985C114.2 26.4252 114.189 26.8039 114.168 27.1345C114.146 27.4652 114.109 27.7959 114.056 28.1265L109.96 26.5745C109.981 26.4359 109.997 26.2919 110.007 26.1425C110.018 25.9932 110.023 25.8545 110.023 25.7265C110.023 24.6492 109.767 23.8065 109.255 23.1985C108.754 22.5799 108.104 22.2705 107.304 22.2705C106.695 22.2705 106.157 22.4519 105.687 22.8145C105.218 23.1665 104.85 23.6625 104.583 24.3025C104.317 24.9425 104.183 25.7052 104.183 26.5905V27.3745C104.183 28.3025 104.349 29.0972 104.679 29.7585C105.021 30.4199 105.543 30.9265 106.247 31.2785C106.951 31.6305 107.853 31.8065 108.951 31.8065C109.378 31.8065 109.869 31.7692 110.424 31.6945C110.989 31.6092 111.559 31.4865 112.135 31.3265C112.722 31.1559 113.266 30.9425 113.767 30.6865L113.927 34.7185C113.512 34.9105 113.026 35.0865 112.472 35.2465C111.928 35.3959 111.309 35.5132 110.615 35.5985C109.922 35.6945 109.175 35.7425 108.375 35.7425ZM101.367 28.1265V25.5665L111.271 25.3585L114.056 26.1425V28.1265H101.367ZM124.579 35.7425C122.521 35.7425 120.835 35.3799 119.523 34.6545C118.222 33.9292 117.262 32.9319 116.643 31.6625C116.035 30.3932 115.731 28.9372 115.731 27.2945C115.731 25.6519 116.019 24.2012 116.595 22.9425C117.171 21.6839 118.03 20.7025 119.171 19.9985C120.323 19.2839 121.753 18.9265 123.459 18.9265C124.91 18.9265 126.153 19.1879 127.187 19.7105C128.222 20.2225 129.017 21.0012 129.571 22.0465C130.126 23.0919 130.403 24.4092 130.403 25.9985C130.403 26.4252 130.393 26.8039 130.371 27.1345C130.35 27.4652 130.313 27.7959 130.259 28.1265L126.163 26.5745C126.185 26.4359 126.201 26.2919 126.211 26.1425C126.222 25.9932 126.227 25.8545 126.227 25.7265C126.227 24.6492 125.971 23.8065 125.459 23.1985C124.958 22.5799 124.307 22.2705 123.507 22.2705C122.899 22.2705 122.361 22.4519 121.891 22.8145C121.422 23.1665 121.054 23.6625 120.787 24.3025C120.521 24.9425 120.387 25.7052 120.387 26.5905V27.3745C120.387 28.3025 120.553 29.0972 120.883 29.7585C121.225 30.4199 121.747 30.9265 122.451 31.2785C123.155 31.6305 124.057 31.8065 125.155 31.8065C125.582 31.8065 126.073 31.7692 126.627 31.6945C127.193 31.6092 127.763 31.4865 128.339 31.3265C128.926 31.1559 129.47 30.9425 129.971 30.6865L130.131 34.7185C129.715 34.9105 129.23 35.0865 128.675 35.2465C128.131 35.3959 127.513 35.5132 126.819 35.5985C126.126 35.6945 125.379 35.7425 124.579 35.7425ZM117.571 28.1265V25.5665L127.475 25.3585L130.259 26.1425V28.1265H117.571ZM131.823 35.3265V33.0865C132.612 32.0519 133.386 31.0439 134.143 30.0625C134.9 29.0705 135.626 28.1212 136.319 27.2145L140.623 21.5825L141.199 22.9905H138.127C137.615 22.9905 137.007 22.9905 136.303 22.9905C135.61 22.9905 134.884 22.9905 134.127 22.9905C133.37 22.9905 132.65 22.9905 131.967 22.9905V19.3585H145.887V22.0305C145.514 22.5105 145.087 23.0599 144.607 23.6785C144.138 24.2865 143.647 24.9212 143.135 25.5825C142.634 26.2332 142.148 26.8625 141.679 27.4705L137.519 32.8465L137.071 31.6945H140.431C140.943 31.6945 141.54 31.6945 142.223 31.6945C142.906 31.6945 143.61 31.6945 144.335 31.6945C145.06 31.6945 145.732 31.6945 146.351 31.6945V35.3265H131.823Z" fill="#04A7E2"/>
<path d="M158.067 35.7585C157.352 35.7585 156.702 35.6572 156.115 35.4545C155.539 35.2625 155.011 34.9905 154.531 34.6385C154.062 34.2759 153.64 33.8439 153.267 33.3425H152.931L152.419 35.3265H148.643C148.643 34.1852 148.643 33.0812 148.643 32.0145C148.643 30.9372 148.643 29.7372 148.643 28.4145V19.5345C148.643 18.2332 148.643 16.9479 148.643 15.6785C148.643 14.3985 148.643 13.1292 148.643 11.8705L153.427 11.4545C153.427 12.7132 153.427 14.0092 153.427 15.3425C153.427 16.6652 153.427 18.0625 153.427 19.5345V20.9905H153.811C154.088 20.5639 154.435 20.1959 154.851 19.8865C155.267 19.5772 155.736 19.3425 156.259 19.1825C156.792 19.0119 157.379 18.9265 158.019 18.9265C159.427 18.9265 160.611 19.2945 161.571 20.0305C162.531 20.7665 163.256 21.7692 163.747 23.0385C164.238 24.3079 164.483 25.7372 164.483 27.3265C164.483 28.8092 164.248 30.1905 163.779 31.4705C163.32 32.7505 162.616 33.7852 161.667 34.5745C160.718 35.3639 159.518 35.7585 158.067 35.7585ZM156.259 31.6945C157.016 31.6945 157.64 31.4865 158.131 31.0705C158.632 30.6545 159 30.1212 159.235 29.4705C159.47 28.8092 159.587 28.1052 159.587 27.3585C159.587 26.5799 159.464 25.8652 159.219 25.2145C158.974 24.5532 158.6 24.0252 158.099 23.6305C157.608 23.2359 156.984 23.0385 156.227 23.0385C155.854 23.0385 155.491 23.0972 155.139 23.2145C154.798 23.3212 154.478 23.4812 154.179 23.6945C153.891 23.9079 153.64 24.1639 153.427 24.4625V29.9025C153.619 30.2652 153.848 30.5799 154.115 30.8465C154.382 31.1132 154.691 31.3212 155.043 31.4705C155.406 31.6199 155.811 31.6945 156.259 31.6945ZM174.605 35.7585C173.154 35.7585 171.89 35.5292 170.813 35.0705C169.746 34.6119 168.861 33.9879 168.157 33.1985C167.463 32.4092 166.941 31.5079 166.589 30.4945C166.247 29.4705 166.077 28.4039 166.077 27.2945C166.077 25.7052 166.397 24.2812 167.037 23.0225C167.687 21.7532 168.637 20.7559 169.885 20.0305C171.143 19.2945 172.685 18.9265 174.509 18.9265C175.917 18.9265 177.149 19.1399 178.205 19.5665C179.271 19.9825 180.157 20.5745 180.861 21.3425C181.575 22.0999 182.109 22.9905 182.461 24.0145C182.813 25.0279 182.989 26.1212 182.989 27.2945C182.989 28.9052 182.663 30.3505 182.013 31.6305C181.362 32.8999 180.413 33.9079 179.165 34.6545C177.917 35.3905 176.397 35.7585 174.605 35.7585ZM174.589 31.8545C175.389 31.8545 176.045 31.6412 176.557 31.2145C177.079 30.7772 177.469 30.2119 177.725 29.5185C177.991 28.8252 178.125 28.0839 178.125 27.2945C178.125 26.3559 177.975 25.5559 177.677 24.8945C177.378 24.2225 176.962 23.7105 176.429 23.3585C175.895 23.0065 175.277 22.8305 174.573 22.8305C173.783 22.8305 173.117 23.0279 172.573 23.4225C172.039 23.8172 171.634 24.3505 171.357 25.0225C171.09 25.6945 170.957 26.4519 170.957 27.2945C170.957 28.0839 171.09 28.8252 171.357 29.5185C171.634 30.2119 172.039 30.7772 172.573 31.2145C173.117 31.6412 173.789 31.8545 174.589 31.8545ZM193.089 35.7585C191.639 35.7585 190.375 35.5292 189.297 35.0705C188.231 34.6119 187.345 33.9879 186.641 33.1985C185.948 32.4092 185.425 31.5079 185.073 30.4945C184.732 29.4705 184.561 28.4039 184.561 27.2945C184.561 25.7052 184.881 24.2812 185.521 23.0225C186.172 21.7532 187.121 20.7559 188.369 20.0305C189.628 19.2945 191.169 18.9265 192.993 18.9265C194.401 18.9265 195.633 19.1399 196.689 19.5665C197.756 19.9825 198.641 20.5745 199.345 21.3425C200.06 22.0999 200.593 22.9905 200.945 24.0145C201.297 25.0279 201.473 26.1212 201.473 27.2945C201.473 28.9052 201.148 30.3505 200.497 31.6305C199.847 32.8999 198.897 33.9079 197.649 34.6545C196.401 35.3905 194.881 35.7585 193.089 35.7585ZM193.073 31.8545C193.873 31.8545 194.529 31.6412 195.041 31.2145C195.564 30.7772 195.953 30.2119 196.209 29.5185C196.476 28.8252 196.609 28.0839 196.609 27.2945C196.609 26.3559 196.46 25.5559 196.161 24.8945C195.863 24.2225 195.447 23.7105 194.913 23.3585C194.38 23.0065 193.761 22.8305 193.057 22.8305C192.268 22.8305 191.601 23.0279 191.057 23.4225C190.524 23.8172 190.119 24.3505 189.841 25.0225C189.575 25.6945 189.441 26.4519 189.441 27.2945C189.441 28.0839 189.575 28.8252 189.841 29.5185C190.119 30.2119 190.524 30.7772 191.057 31.2145C191.601 31.6412 192.273 31.8545 193.073 31.8545ZM214.135 35.3265C213.665 34.6652 213.191 34.0092 212.711 33.3585C212.231 32.7079 211.756 32.0625 211.287 31.4225L209.479 28.9425H208.279V25.7745H209.559L211.143 23.5025C211.633 22.8199 212.119 22.1319 212.599 21.4385C213.089 20.7345 213.575 20.0412 214.055 19.3585H219.607C218.839 20.3292 218.076 21.2892 217.319 22.2385C216.561 23.1879 215.804 24.1425 215.047 25.1025L212.791 27.9185L212.583 25.8065L215.367 29.5025C216.145 30.4732 216.919 31.4492 217.687 32.4305C218.455 33.4012 219.223 34.3665 219.991 35.3265H214.135ZM203.911 35.3265C203.911 34.1852 203.911 33.0812 203.911 32.0145C203.911 30.9372 203.911 29.7372 203.911 28.4145V19.5345C203.911 18.2332 203.911 16.9479 203.911 15.6785C203.911 14.4092 203.911 13.1399 203.911 11.8705L208.695 11.4545C208.695 12.7132 208.695 14.0092 208.695 15.3425C208.695 16.6652 208.695 18.0625 208.695 19.5345V29.3425C208.695 30.4199 208.695 31.4332 208.695 32.3825C208.695 33.3212 208.695 34.3025 208.695 35.3265H203.911Z" fill="#00284B"/>
</svg>
